<svg xmlns="http://www.w3.org/2000/svg" viewBox="0 0 60.76 11.97"><path d="M6,2v1.4a.33.33,0,0,0,.38.37H7.92A.6.6,0,0,1,8.4,4a.8.8,0,0,1,.2.54A.72.72,0,0,1,8.37,5a.73.73,0,0,1-.53.22H6.32A.33.33,0,0,0,6,5.37.68.68,0,0,0,6,5.74V9a1,1,0,0,0,0,.29.32.32,0,0,0,.17.17V10a.79.79,0,0,1-.55-.3,1,1,0,0,1-.2-.62V5.65a1,1,0,0,1,.26-.74,1,1,0,0,1,.74-.26H7.82C8,4.65,8,4.58,8,4.45S8,4.28,7.82,4.28H6.3A.86.86,0,0,1,5.66,4a.9.9,0,0,1-.25-.66V2Z" fill-rule="evenodd"/><path d="M.89,4.67H3.7a.79.79,0,0,1,.61.27.94.94,0,0,1,.24.65V9.17a.84.84,0,0,1-.22.57.74.74,0,0,1-.52.26.82.82,0,0,1-.54-.19A.6.6,0,0,1,3,9.33V7.52a.31.31,0,0,0-.34-.35H.92a.31.31,0,0,0-.27.1.55.55,0,0,0-.07.31V9c0,.28.13.42.39.42H2.52V10H.93a.88.88,0,0,1-.68-.27A1,1,0,0,1,0,9V7.61a1.19,1.19,0,0,1,.22-.72.74.74,0,0,1,.64-.29H2.7a.89.89,0,0,1,.64.24.84.84,0,0,1,.25.63V9.17a.29.29,0,0,0,.05.17.16.16,0,0,0,.28,0A.29.29,0,0,0,4,9.17V5.61a.36.36,0,0,0-.11-.27.36.36,0,0,0-.26-.1H.94a.36.36,0,0,0-.21,0,.58.58,0,0,0-.14.18H0A.87.87,0,0,1,.32,4.9a.81.81,0,0,1,.58-.23" fill-rule="evenodd"/><path d="M18.48,6.79H17l-.58-1.54H13.8l-.54,1.54H11.84L14.42,0h1.41ZM16,4.1l-.91-2.52L14.21,4.1Zm2.52,2.68V0h1.33V3l2.7-3h1.79L21.88,2.64,24.5,6.79H22.77L21,3.6,19.87,4.74V6.79Zm7.68,0h1.42L30,0H28.59L27,5,25.3,0H23.85Zm9.09,0H33.85l-.58-1.54H30.63l-.54,1.54H28.67L31.24,0h1.41ZM32.85,4.1l-.91-2.52L31,4.1Zm6.21,2.68V1.15h-2V0h5.25V1.15h-2V6.79Zm3.49,0V0h4.9V1.15H43.89v1.5H47.2V3.8H43.89V5.64h3.69V6.79Zm5.5,0V0h2.81A4.67,4.67,0,0,1,52.4.18a1.52,1.52,0,0,1,.77.65,2,2,0,0,1,.29,1.07A1.85,1.85,0,0,1,53,3.17a2.08,2.08,0,0,1-1.31.63,3.13,3.13,0,0,1,.72.57,7.63,7.63,0,0,1,.76,1.1L54,6.79H52.4l-1-1.48a9.44,9.44,0,0,0-.7-1,1,1,0,0,0-.4-.28A2.15,2.15,0,0,0,49.66,4h-.27V6.79Zm1.34-3.92h1a5.07,5.07,0,0,0,1.2-.08.73.73,0,0,0,.37-.29A.91.91,0,0,0,52.08,2a.83.83,0,0,0-.18-.55.81.81,0,0,0-.5-.27q-.16,0-1,0h-1ZM54,6.79V0h2l1.2,4.63L58.42,0h2V6.79H59.18V1.44L57.87,6.79H56.58L55.28,1.44V6.79ZM11.84,8.33h.34v3.61h-.34Zm5.87.53v3.08h-.34V8.59H17v3.35h-.33V8.76a.48.48,0,0,1,.12-.36.6.6,0,0,1,.39-.1.57.57,0,0,1,.38.1.43.43,0,0,1,.12.34Zm5.52,0v.5H22.9V8.59h-.34v3.08h.34V10.12h-.17V9.85h.5v1.66a.6.6,0,0,1,0,.27.28.28,0,0,1-.16.15.82.82,0,0,1-.3,0,.57.57,0,0,1-.38-.1.44.44,0,0,1-.12-.34V8.86a1.45,1.45,0,0,1,0-.27.35.35,0,0,1,.07-.14.33.33,0,0,1,.16-.11.84.84,0,0,1,.27,0,.56.56,0,0,1,.38.1.44.44,0,0,1,.11.34Zm4.53-.53h.79v.28H28.1V9.85h.46v.28H28.1v1.52h.46v.28h-.79ZM34,8.86v3.08h-.34V8.59h-.34v3.35H33V8.76a.48.48,0,0,1,.12-.36.6.6,0,0,1,.39-.1.57.57,0,0,1,.38.1.43.43,0,0,1,.12.34Zm4.53-.53h.79v.28h-.46V9.85h.46v.28h-.46v1.52h.46v.28h-.79Zm5.94.28h-.34V9.85h.34Zm-.67,3.33V8.33h.62l.15,0,.11.06a.33.33,0,0,1,.11.15,1.34,1.34,0,0,1,0,.3v.79a.38.38,0,0,1-.05.21.3.3,0,0,1-.16.11.38.38,0,0,1,.16.12.37.37,0,0,1,0,.2v1.63H44.5V10.13h-.34v1.81Zm5.54-3.61h.33v3.61h-.33Zm5.87.53v3.08h-.33V8.59h-.34v3.35h-.33V8.76a.48.48,0,0,1,.12-.36.59.59,0,0,1,.39-.1.57.57,0,0,1,.38.1.43.43,0,0,1,.12.34Zm5.52,0v.5h-.33V8.59h-.34v3.08h.34V10.12h-.17V9.85h.5v1.66a.6.6,0,0,1,0,.27.28.28,0,0,1-.16.15.83.83,0,0,1-.3,0,.58.58,0,0,1-.38-.1.44.44,0,0,1-.11-.34V8.86a1.47,1.47,0,0,1,0-.27A.33.33,0,0,1,60,8.33a.84.84,0,0,1,.27,0,.55.55,0,0,1,.38.1.44.44,0,0,1,.11.34Z" fill-rule="evenodd"/></svg>