<svg xmlns="http://www.w3.org/2000/svg" viewBox="0 0 57.36 12.83"><path d="M14.74,0a11.22,11.22,0,0,0,.94.84c.78.69,1.57,1.36,2.36,2l.21.17c0-.25,0-.47,0-.69s0-.18.16-.17c.56,0,1.13,0,1.7,0,.14,0,.15.06.16.18,0,.64,0,1.27,0,1.91a.46.46,0,0,0,.17.38l2.12,1.94c.05,0,.12.08.14.16s-.12,0-.18,0H20.81c-.32,0-.28,0-.28.27q0,2.74,0,5.48c0,.18,0,.22-.22.22H8c-.18,0-.22-.05-.22-.23q0-2.15,0-4.3c0-.19.05-.24.24-.23.48,0,.48,0,.48.49,0,1.11,0,2.23,0,3.34,0,.16,0,.2.21.2H19.57c.15,0,.2,0,.2-.19,0-1.81,0-3.61,0-5.42,0-.19,0-.23.23-.21a4.53,4.53,0,0,0,.58,0A.93.93,0,0,0,20.31,6L14.53,1.38a.19.19,0,0,0-.27,0L11.65,3a3.47,3.47,0,0,1-.61.32l.5-.47L14.32.33A1.89,1.89,0,0,0,14.67,0Z" fill-rule="evenodd"/><path d="M17.26,9.5l-.85-.62-6.79-5a.2.2,0,0,0-.28,0L1.14,10a.32.32,0,0,0-.15.3c0,.78,0,1.57,0,2.35,0,.12,0,.17-.16.16s-.48,0-.71,0-.13,0-.13-.13C0,11.8,0,10.92,0,10a.27.27,0,0,1,.14-.23L4.5,6.47,9.4,2.71c.13-.1.21-.11.34,0l5.53,4.95,2,1.74.07,0Z" fill-rule="evenodd"/><path d="M11,3.4l0,0s0,0,0,0Z" fill-rule="evenodd"/><path d="M27.08,7.95l5.73,0,6.38-.08c1.42,0,2.83,0,4.25,0,1.82,0,3.64.1,5.46.14l5.44.13,2.11.06.09,0Q41.81,8.28,27.08,7.95Z" fill-rule="evenodd"/><path d="M27,.69h1.49A2.81,2.81,0,0,1,30,1a1.11,1.11,0,0,1,.47,1,1.15,1.15,0,0,1-.26.77,1.26,1.26,0,0,1-.76.39v0q1.2.21,1.2,1.26a1.36,1.36,0,0,1-.48,1.1,2,2,0,0,1-1.34.4H27Zm.61,2.26h1a1.64,1.64,0,0,0,.93-.2.79.79,0,0,0,.28-.69.7.7,0,0,0-.32-.64,2,2,0,0,0-1-.2h-.9Zm0,.52v2h1.1a1.57,1.57,0,0,0,1-.25A.91.91,0,0,0,30,4.42a.82.82,0,0,0-.33-.72,1.76,1.76,0,0,0-1-.23Z"/><path d="M33.38,6A1.81,1.81,0,0,1,32,5.5,2.07,2.07,0,0,1,31.49,4,2.29,2.29,0,0,1,32,2.5a1.56,1.56,0,0,1,1.26-.56,1.49,1.49,0,0,1,1.18.49,1.87,1.87,0,0,1,.43,1.29v.38H32.11a1.57,1.57,0,0,0,.35,1.06,1.22,1.22,0,0,0,.94.36,3.18,3.18,0,0,0,1.26-.27v.53a3.15,3.15,0,0,1-.6.2A3.37,3.37,0,0,1,33.38,6Zm-.16-3.6a1,1,0,0,0-.76.31,1.43,1.43,0,0,0-.33.86h2.07a1.32,1.32,0,0,0-.25-.87A.89.89,0,0,0,33.22,2.44Z"/><path d="M37.13,5.54l.31,0,.23,0v.46a1.08,1.08,0,0,1-.29.08L37,6Q35.9,6,35.9,4.83V2.47h-.57V2.19l.57-.25.25-.84h.35V2h1.15v.47H36.5V4.8a.8.8,0,0,0,.17.55A.59.59,0,0,0,37.13,5.54Z"/><path d="M41.87,4a2.18,2.18,0,0,1-.49,1.51A1.71,1.71,0,0,1,40,6a1.78,1.78,0,0,1-.94-.25,1.64,1.64,0,0,1-.63-.71A2.49,2.49,0,0,1,38.24,4a2.18,2.18,0,0,1,.48-1.51,1.71,1.71,0,0,1,1.34-.54,1.67,1.67,0,0,1,1.32.55A2.17,2.17,0,0,1,41.87,4Zm-3,0a1.88,1.88,0,0,0,.3,1.15,1.2,1.2,0,0,0,1.78,0A1.87,1.87,0,0,0,41.25,4a1.84,1.84,0,0,0-.3-1.14,1.07,1.07,0,0,0-.9-.39,1.05,1.05,0,0,0-.89.39A1.86,1.86,0,0,0,38.86,4Z"/><path d="M45.63,6V3.4a1,1,0,0,0-.22-.72.9.9,0,0,0-.69-.24,1.14,1.14,0,0,0-.91.34,1.69,1.69,0,0,0-.29,1.11V6h-.6V2h.49l.1.54h0a1.22,1.22,0,0,1,.52-.45,1.68,1.68,0,0,1,.74-.16,1.5,1.5,0,0,1,1.07.34,1.47,1.47,0,0,1,.36,1.1V6Z"/><path d="M47.4.94a.4.4,0,0,1,.1-.3.37.37,0,0,1,.5,0,.39.39,0,0,1,.1.3.4.4,0,0,1-.1.3.37.37,0,0,1-.5,0A.4.4,0,0,1,47.4.94Zm.65,5h-.6V2h.6Z"/><path d="M52,5.43h0a1.41,1.41,0,0,1-1.24.6,1.47,1.47,0,0,1-1.21-.53A2.33,2.33,0,0,1,49.1,4a2.37,2.37,0,0,1,.43-1.52,1.46,1.46,0,0,1,1.2-.54A1.44,1.44,0,0,1,52,2.52h0l0-.29V.35h.6V6h-.49Zm-1.2.1a1.09,1.09,0,0,0,.89-.33A1.68,1.68,0,0,0,52,4.12V4a2,2,0,0,0-.28-1.2,1.06,1.06,0,0,0-.89-.36.92.92,0,0,0-.81.41A2,2,0,0,0,49.72,4,2,2,0,0,0,50,5.15.94.94,0,0,0,50.82,5.53Z"/><path d="M56.28,6l-.12-.56h0a1.66,1.66,0,0,1-.59.5,1.8,1.8,0,0,1-.73.13,1.32,1.32,0,0,1-.92-.3,1.11,1.11,0,0,1-.33-.86q0-1.2,1.91-1.26l.67,0V3.35a1,1,0,0,0-.2-.69.82.82,0,0,0-.64-.22,2.6,2.6,0,0,0-1.12.3L54,2.28A2.82,2.82,0,0,1,54.64,2a2.77,2.77,0,0,1,.7-.09,1.51,1.51,0,0,1,1,.31,1.31,1.31,0,0,1,.34,1V6Zm-1.35-.42a1.22,1.22,0,0,0,.88-.31,1.13,1.13,0,0,0,.32-.86V4l-.6,0a2.18,2.18,0,0,0-1,.22.67.67,0,0,0-.32.61.62.62,0,0,0,.2.49A.82.82,0,0,0,54.93,5.54Z"/><path d="M26.83,11.89h-.28l-.15,0-.12,0V9.65l.13,0,.15,0h.29a2,2,0,0,1,.35,0,.94.94,0,0,1,.29.1.55.55,0,0,1,.2.18.5.5,0,0,1,.07.28.52.52,0,0,1-.09.31.47.47,0,0,1-.25.18l.18.07a.52.52,0,0,1,.14.11.46.46,0,0,1,.1.16.69.69,0,0,1,0,.23.55.55,0,0,1-.25.49A1.45,1.45,0,0,1,26.83,11.89Zm-.32-1.3h.43l.23,0a.54.54,0,0,0,.19-.07.35.35,0,0,0,.13-.13.41.41,0,0,0,0-.2.34.34,0,0,0,0-.19.37.37,0,0,0-.14-.13.7.7,0,0,0-.21-.07l-.27,0h-.2l-.14,0Zm0,.19v.89h.35l.29,0a.83.83,0,0,0,.25-.07.45.45,0,0,0,.17-.14.4.4,0,0,0,.07-.24.47.47,0,0,0,0-.22.35.35,0,0,0-.13-.14.58.58,0,0,0-.21-.07l-.27,0Z"/><path d="M29.62,11.81l-.25.06a2,2,0,0,1-.39,0,.79.79,0,0,1-.32-.06.52.52,0,0,1-.21-.16.64.64,0,0,1-.11-.24,1.37,1.37,0,0,1,0-.32v-.95h.21v.88a1.53,1.53,0,0,0,0,.3.5.5,0,0,0,.09.2.33.33,0,0,0,.15.11.66.66,0,0,0,.23,0l.26,0,.14,0V10.18h.21Z"/><path d="M30.45,9.67a.16.16,0,0,1,0,.12.16.16,0,0,1-.22,0,.18.18,0,0,1,0-.24.16.16,0,0,1,.22,0A.16.16,0,0,1,30.45,9.67Zm0,2.2h-.21V10.18h.21Z"/><path d="M31.39,11.9l-.19,0a.33.33,0,0,1-.13-.08.32.32,0,0,1-.08-.13.62.62,0,0,1,0-.2V9.38l.21,0v2.12a.43.43,0,0,0,0,.13.17.17,0,0,0,0,.07l.08,0,.11,0Z"/><path d="M33.13,11.82l-.24.06a1.94,1.94,0,0,1-.37,0,.91.91,0,0,1-.34-.06.72.72,0,0,1-.26-.17.78.78,0,0,1-.17-.28,1.06,1.06,0,0,1-.06-.37,1.17,1.17,0,0,1,.05-.35.81.81,0,0,1,.15-.28.68.68,0,0,1,.24-.18.76.76,0,0,1,.32-.07.8.8,0,0,1,.29,0l.18.09V9.38l.21,0Zm-.21-1.33-.07,0-.1,0-.13,0h-.14a.56.56,0,0,0-.26.06.48.48,0,0,0-.17.15.62.62,0,0,0-.09.22,1.16,1.16,0,0,0,0,.27.72.72,0,0,0,.17.51.58.58,0,0,0,.44.18h.25l.15,0Z"/><path d="M34,9.67a.16.16,0,0,1,0,.12.16.16,0,0,1-.22,0,.18.18,0,0,1,0-.24.16.16,0,0,1,.22,0A.16.16,0,0,1,34,9.67Zm0,2.2h-.21V10.18h.21Z"/><path d="M34.47,10.24l.25-.06a2,2,0,0,1,.39,0,.81.81,0,0,1,.32.06.49.49,0,0,1,.21.16.65.65,0,0,1,.11.25,1.45,1.45,0,0,1,0,.32v.94h-.21V11a1.58,1.58,0,0,0,0-.3.5.5,0,0,0-.08-.2.32.32,0,0,0-.15-.11.68.68,0,0,0-.23,0l-.26,0-.14,0v1.48h-.21Z"/><path d="M37.42,11.67l-.06,0-.1,0-.13,0H37a.89.89,0,0,1-.28,0,.64.64,0,0,1-.24-.14.71.71,0,0,1-.16-.25,1,1,0,0,1-.06-.38,1,1,0,0,1,.06-.33.79.79,0,0,1,.16-.27.72.72,0,0,1,.25-.18.85.85,0,0,1,.33-.06,1.84,1.84,0,0,1,.38,0l.23.06v1.54a.66.66,0,0,1-.2.54.91.91,0,0,1-.59.16l-.3,0-.23-.06,0-.19.21.06.27,0a.67.67,0,0,0,.44-.12.5.5,0,0,0,.14-.4Zm0-1.29-.14,0H37a.59.59,0,0,0-.24,0,.51.51,0,0,0-.18.13.6.6,0,0,0-.11.21.84.84,0,0,0,0,.26.79.79,0,0,0,0,.29.56.56,0,0,0,.12.19.44.44,0,0,0,.17.11.56.56,0,0,0,.19,0,.78.78,0,0,0,.26,0,.59.59,0,0,0,.18-.1Z"/><path d="M40.23,11.28a.8.8,0,0,0,.12-.24,1.51,1.51,0,0,0,.06-.27l.18,0a1.49,1.49,0,0,1-.07.32,1,1,0,0,1-.16.3l.23.24a1.26,1.26,0,0,1,.15.21H40.5l-.11-.15-.15-.16a.88.88,0,0,1-.3.25.91.91,0,0,1-.41.09.87.87,0,0,1-.34-.06.62.62,0,0,1-.22-.15.54.54,0,0,1-.12-.2.66.66,0,0,1,0-.21.62.62,0,0,1,.15-.42.8.8,0,0,1,.16-.14l.18-.1a1,1,0,0,1-.2-.27.62.62,0,0,1-.06-.26.61.61,0,0,1,0-.23.47.47,0,0,1,.29-.28.65.65,0,0,1,.22,0,.61.61,0,0,1,.22,0,.47.47,0,0,1,.16.1.45.45,0,0,1,.1.15.5.5,0,0,1,0,.19.53.53,0,0,1,0,.22.63.63,0,0,1-.11.17.83.83,0,0,1-.16.13l-.19.11Zm-.7.43a.77.77,0,0,0,.34-.07.67.67,0,0,0,.25-.21l-.67-.68-.14.07a.45.45,0,0,0-.13.1.51.51,0,0,0-.09.15.55.55,0,0,0,0,.21.46.46,0,0,0,0,.15.39.39,0,0,0,.08.14.42.42,0,0,0,.15.1A.57.57,0,0,0,39.53,11.71Zm.4-1.67a.29.29,0,0,0-.09-.21.3.3,0,0,0-.22-.09.33.33,0,0,0-.25.09.34.34,0,0,0-.09.25.55.55,0,0,0,.05.23.86.86,0,0,0,.18.24,1,1,0,0,0,.31-.2A.41.41,0,0,0,39.93,10Z"/><path d="M42.38,9.59a1.16,1.16,0,0,1,.71.18.62.62,0,0,1,.24.52.71.71,0,0,1-.07.33.55.55,0,0,1-.2.22.88.88,0,0,1-.31.12,2.09,2.09,0,0,1-.42,0H42v.87h-.22V9.65l.28,0Zm0,.19H42v1h.28l.32,0a.72.72,0,0,0,.25-.08.39.39,0,0,0,.16-.16.53.53,0,0,0,.06-.26A.47.47,0,0,0,43,10a.45.45,0,0,0-.16-.16.71.71,0,0,0-.23-.08Z"/><path d="M44.3,10.15l.2,0,.13,0,0,.18-.11,0h-.21l-.22,0-.11,0v1.48h-.21V10.26l.23-.07A1.4,1.4,0,0,1,44.3,10.15Z"/><path d="M46.39,11a1.09,1.09,0,0,1-.06.36.81.81,0,0,1-.16.28.73.73,0,0,1-.24.18.79.79,0,0,1-.62,0,.73.73,0,0,1-.24-.18.8.8,0,0,1-.16-.28,1.17,1.17,0,0,1,0-.72.82.82,0,0,1,.16-.28.72.72,0,0,1,.24-.18.79.79,0,0,1,.62,0,.72.72,0,0,1,.24.18.83.83,0,0,1,.16.28A1.09,1.09,0,0,1,46.39,11Zm-.23,0a.8.8,0,0,0-.15-.5.52.52,0,0,0-.8,0,.8.8,0,0,0-.15.5.79.79,0,0,0,.15.5.52.52,0,0,0,.8,0A.79.79,0,0,0,46.16,11Z"/><path d="M48.19,11.82l-.24.06a1.94,1.94,0,0,1-.37,0,.91.91,0,0,1-.34-.06.73.73,0,0,1-.26-.17.79.79,0,0,1-.17-.28,1,1,0,0,1-.06-.37,1.18,1.18,0,0,1,.05-.35.81.81,0,0,1,.15-.28.68.68,0,0,1,.24-.18.76.76,0,0,1,.32-.07.8.8,0,0,1,.29,0l.18.09V9.38l.21,0ZM48,10.49l-.07,0-.1,0-.13,0h-.14a.56.56,0,0,0-.26.06.47.47,0,0,0-.17.15.62.62,0,0,0-.09.22A1.16,1.16,0,0,0,47,11a.72.72,0,0,0,.17.51.57.57,0,0,0,.44.18h.25l.15,0Z"/><path d="M50,11.81l-.25.06a2,2,0,0,1-.39,0,.79.79,0,0,1-.32-.06.51.51,0,0,1-.21-.16.63.63,0,0,1-.11-.24,1.36,1.36,0,0,1,0-.32v-.95h.21v.88a1.52,1.52,0,0,0,0,.3.49.49,0,0,0,.09.2.33.33,0,0,0,.15.11.66.66,0,0,0,.23,0l.26,0,.14,0V10.18H50Z"/><path d="M51.31,11.91a.9.9,0,0,1-.35-.06.65.65,0,0,1-.25-.18.79.79,0,0,1-.15-.28,1.16,1.16,0,0,1-.05-.36,1.15,1.15,0,0,1,.05-.36.81.81,0,0,1,.15-.28.69.69,0,0,1,.24-.18.79.79,0,0,1,.32-.06l.26,0a.63.63,0,0,1,.18.06l-.06.18-.15-.05-.22,0a.51.51,0,0,0-.43.18.8.8,0,0,0-.15.51,1.09,1.09,0,0,0,0,.28.55.55,0,0,0,.11.22.5.5,0,0,0,.19.14.7.7,0,0,0,.28.05.73.73,0,0,0,.23,0l.14-.05,0,.18-.18.06A1.09,1.09,0,0,1,51.31,11.91Z"/><path d="M52.31,10.18H53v.18h-.67v.9a.91.91,0,0,0,0,.23.33.33,0,0,0,.07.14.22.22,0,0,0,.11.07l.14,0a.62.62,0,0,0,.22,0l.13-.06.05.18-.16.07a.78.78,0,0,1-.25,0,.74.74,0,0,1-.26,0,.38.38,0,0,1-.17-.12.5.5,0,0,1-.09-.21,1.43,1.43,0,0,1,0-.29V9.69l.21,0Z"/><path d="M53.63,9.67a.16.16,0,0,1,0,.12.16.16,0,0,1-.22,0,.18.18,0,0,1,0-.24.16.16,0,0,1,.22,0A.16.16,0,0,1,53.63,9.67Zm0,2.2h-.21V10.18h.21Z"/><path d="M55.59,11a1.08,1.08,0,0,1-.06.36.81.81,0,0,1-.16.28.73.73,0,0,1-.24.18.79.79,0,0,1-.62,0,.73.73,0,0,1-.24-.18.8.8,0,0,1-.16-.28,1.17,1.17,0,0,1,0-.72.82.82,0,0,1,.16-.28.73.73,0,0,1,.24-.18.79.79,0,0,1,.62,0,.73.73,0,0,1,.24.18.83.83,0,0,1,.16.28A1.09,1.09,0,0,1,55.59,11Zm-.23,0a.8.8,0,0,0-.15-.5.52.52,0,0,0-.8,0,.8.8,0,0,0-.15.5.79.79,0,0,0,.15.5.52.52,0,0,0,.8,0A.79.79,0,0,0,55.36,11Z"/><path d="M56,10.24l.25-.06a2,2,0,0,1,.39,0,.81.81,0,0,1,.32.06.49.49,0,0,1,.21.16.64.64,0,0,1,.11.25,1.42,1.42,0,0,1,0,.32v.94h-.21V11a1.61,1.61,0,0,0,0-.3.51.51,0,0,0-.08-.2.32.32,0,0,0-.15-.11.68.68,0,0,0-.23,0l-.26,0-.14,0v1.48H56Z"/></svg>