<svg xmlns="http://www.w3.org/2000/svg" viewBox="0 0 17.97 7.26"><path d="M7.27,5.48a1.15,1.15,0,0,1,.86.47c.11.11.14.13.28.13l5.43,0c.39,0,3.8,0,4.12,0l-4.18,0-5.52.13A.38.38,0,0,1,8,6.15,1.26,1.26,0,0,0,6.33,6a.53.53,0,0,1-.54.07,8,8,0,0,0-4.4-.2c-.48.11-1,.25-1.4.37.14-.46.29-.94.45-1.42a.2.2,0,0,1,.12-.12A8.4,8.4,0,0,1,3.8,4.63a.58.58,0,0,1-.2,0,9.48,9.48,0,0,0-2.91.25l-.31,1c.34-.09.7-.2,1.06-.28a8,8,0,0,1,3.89.08c.1,0,.53.17.62.17C6.31,5.91,6.77,5.49,7.27,5.48Z" fill-rule="evenodd"/><path d="M6.09,5.62a10.7,10.7,0,0,0-4.5-2.86L3,1.67,4.44,3l0,0L3,1.9l-.82.76A9.57,9.57,0,0,1,6.09,5.62Z" fill-rule="evenodd"/><path d="M7.37,5A10.7,10.7,0,0,1,10.72.85L9,.26,8.09,2l0,0,1-1.53,1,.46A9.57,9.57,0,0,0,7.37,5Z" fill-rule="evenodd"/><path d="M6.94,5A11.15,11.15,0,0,0,3.6.55L5.37,0,6.3,1.83l0,0L5.3.23,4.22.67A10,10,0,0,1,6.94,5Z" fill-rule="evenodd"/><path d="M8.78,5.26a.13.13,0,0,0-.12.06.29.29,0,0,0,0,.17q0,.22.17.22h.1l.1,0v.18a.54.54,0,0,1-.22,0,.35.35,0,0,1-.27-.1.42.42,0,0,1-.09-.29.47.47,0,0,1,0-.21.32.32,0,0,1,.13-.14.39.39,0,0,1,.2,0A.55.55,0,0,1,9,5.14L9,5.31l-.09,0Z"/><path d="M9.8,5.1v.47a.31.31,0,0,1-.09.24.34.34,0,0,1-.25.08.34.34,0,0,1-.24-.08.31.31,0,0,1-.08-.23V5.1h.21v.45a.19.19,0,0,0,0,.12.13.13,0,0,0,.18,0,.2.2,0,0,0,0-.12V5.1Z"/><path d="M10,5.87V5.1h.21v.6h.3v.17Z"/><path d="M10.93,5.87h-.21v-.6h-.19V5.1h.59v.17h-.19Z"/><path d="M11.89,5.1v.47a.31.31,0,0,1-.09.24.34.34,0,0,1-.25.08.34.34,0,0,1-.24-.08.31.31,0,0,1-.08-.23V5.1h.21v.45a.19.19,0,0,0,0,.12.13.13,0,0,0,.18,0,.2.2,0,0,0,0-.12V5.1Z"/><path d="M12.26,5.59v.28h-.21V5.1h.25q.32,0,.32.23a.23.23,0,0,1-.13.21l.23.34h-.24l-.16-.28Zm0-.16h0q.11,0,.11-.1t-.11-.08h0Z"/><path d="M13.24,5.87h-.46V5.1h.46v.17H13v.12h.23v.17H13V5.7h.25Z"/><path d="M14,5.26a.13.13,0,0,0-.12.06.29.29,0,0,0,0,.17q0,.22.17.22h.1l.1,0v.18a.54.54,0,0,1-.22,0,.35.35,0,0,1-.27-.1.42.42,0,0,1-.09-.29.47.47,0,0,1,0-.21.32.32,0,0,1,.13-.14.39.39,0,0,1,.2,0,.55.55,0,0,1,.24.05l-.06.16-.09,0Z"/><path d="M14.82,5.87h-.46V5.1h.46v.17h-.25v.12h.23v.17h-.23V5.7h.25Z"/><path d="M15.7,5.87h-.27l-.28-.54h0q0,.13,0,.2v.35H15V5.1h.27l.28.54h0q0-.12,0-.19V5.1h.19Z"/><path d="M16.2,5.87H16v-.6h-.19V5.1h.59v.17H16.2Z"/><path d="M17,5.87H16.5V5.1H17v.17h-.25v.12h.23v.17h-.23V5.7H17Z"/><path d="M17.31,5.59v.28H17.1V5.1h.25q.32,0,.32.23a.23.23,0,0,1-.13.21l.23.34h-.24l-.16-.28Zm0-.16h0q.11,0,.11-.1t-.11-.08h0Z"/><path d="M10.75,6.82h.31v.4l-.14,0h-.13a.34.34,0,0,1-.27-.1.43.43,0,0,1-.09-.3.39.39,0,0,1,.11-.29.41.41,0,0,1,.3-.1.57.57,0,0,1,.23,0L11,6.65a.39.39,0,0,0-.18,0,.22.22,0,0,0-.17.07.28.28,0,0,0-.06.19.31.31,0,0,0,.05.19.18.18,0,0,0,.15.07h.1V7h-.15Z"/><path d="M11.94,6.87a.42.42,0,0,1-.1.3.41.41,0,0,1-.55,0,.42.42,0,0,1-.1-.3.42.42,0,0,1,.1-.29.36.36,0,0,1,.27-.1.35.35,0,0,1,.27.1A.42.42,0,0,1,11.94,6.87Zm-.56,0a.32.32,0,0,0,0,.2.17.17,0,0,0,.15.07q.2,0,.2-.26t-.2-.26a.17.17,0,0,0-.15.07A.32.32,0,0,0,11.38,6.87Z"/><path d="M12.56,7a.2.2,0,0,1-.08.17.33.33,0,0,1-.21.06.49.49,0,0,1-.22,0V7.07l.13,0h.1l.08,0a.07.07,0,0,0,0-.06.07.07,0,0,0,0,0l0,0-.1-.05-.11-.06-.06-.07a.2.2,0,0,1,0-.1.2.2,0,0,1,.07-.16.29.29,0,0,1,.19-.06h.12l.11,0-.05.13-.1,0h-.08l-.07,0a.07.07,0,0,0,0,.06.07.07,0,0,0,0,0l0,0,.1.05a.41.41,0,0,1,.15.1A.2.2,0,0,1,12.56,7Z"/><path d="M13,7.25h-.16V6.62h-.21V6.48h.58v.14H13Z"/><path d="M13.33,7.25V6.48h.16v.77Z"/><path d="M14.13,6.48h.17L14,7.25h-.18l-.26-.77h.17l.15.46,0,.09,0,.08a1.35,1.35,0,0,1,0-.17Z"/><path d="M14.86,7.25l-.06-.18h-.28l-.06.18h-.18l.27-.78h.2l.27.78Zm-.1-.32-.09-.28V6.6l-.1.33Z"/><path d="M15.3,7v.3h-.16V6.48h.23a.39.39,0,0,1,.23.06.23.23,0,0,1,0,.3.25.25,0,0,1-.11.08l.23.34h-.18L15.39,7Zm0-.13h.05a.2.2,0,0,0,.11,0,.09.09,0,0,0,0-.08.08.08,0,0,0,0-.08.23.23,0,0,0-.12,0h0Z"/></svg>