<svg xmlns="http://www.w3.org/2000/svg" viewBox="0 0 90 19.35"><path d="M3.31,14.36H0V4.78H3.31a3.51,3.51,0,0,1,3,1.12,6,6,0,0,1,.81,3.51A11.26,11.26,0,0,1,7,11.47,4.7,4.7,0,0,1,6.41,13Q5.62,14.36,3.31,14.36ZM5.53,9.41a5.37,5.37,0,0,0-.43-2.5,1.88,1.88,0,0,0-1.79-.77H1.55V13H3.31a1.82,1.82,0,0,0,1.84-1,4.12,4.12,0,0,0,.3-1.1A11.5,11.5,0,0,0,5.53,9.41Z"/><path d="M13.75,13.1l.39,0,0,1.13a14.48,14.48,0,0,1-2.82.32,2.68,2.68,0,0,1-2.23-.85,4.38,4.38,0,0,1-.68-2.73q0-3.72,3-3.72t2.93,3.2l-.1,1.09H10a1.91,1.91,0,0,0,.38,1.27,1.78,1.78,0,0,0,1.36.41Q12.7,13.18,13.75,13.1Zm-.84-2.77a2.39,2.39,0,0,0-.33-1.45,1.34,1.34,0,0,0-1.11-.41,1.39,1.39,0,0,0-1.14.43A2.3,2.3,0,0,0,10,10.33Z"/><path d="M17.4,14.36H15.88v-7h1.51V7.8a3.63,3.63,0,0,1,1.82-.59A2.16,2.16,0,0,1,21,7.9a5.3,5.3,0,0,1,2.53-.68A2,2,0,0,1,25.28,8a4.93,4.93,0,0,1,.52,2.62v3.75H24.29v-3.7A4,4,0,0,0,24.06,9a1,1,0,0,0-1-.48,3.79,3.79,0,0,0-1.36.28l-.24.1a7.57,7.57,0,0,1,.11,1.79v3.62H20.11V10.77A4.52,4.52,0,0,0,19.89,9a1,1,0,0,0-1-.48,3,3,0,0,0-1.3.28l-.21.08Z"/><path d="M28,8.12a2.88,2.88,0,0,1,2.4-.91,2.88,2.88,0,0,1,2.4.91,4.34,4.34,0,0,1,.72,2.73,4.5,4.5,0,0,1-.7,2.74,2.85,2.85,0,0,1-2.42.92A2.85,2.85,0,0,1,28,13.59a4.5,4.5,0,0,1-.7-2.74A4.34,4.34,0,0,1,28,8.12Zm1.14,4.54a1.32,1.32,0,0,0,1.26.56,1.32,1.32,0,0,0,1.26-.56,3.87,3.87,0,0,0,.32-1.83A3.5,3.5,0,0,0,31.61,9a1.36,1.36,0,0,0-1.24-.53A1.36,1.36,0,0,0,29.13,9a3.5,3.5,0,0,0-.34,1.8A3.87,3.87,0,0,0,29.11,12.67Z"/><path d="M37.61,7.22a9.33,9.33,0,0,1,1.75.2l.35.07-.06,1.2q-1.1-.11-1.64-.11A1.72,1.72,0,0,0,36.59,9a3.12,3.12,0,0,0-.36,1.79,3.38,3.38,0,0,0,.35,1.82,1.68,1.68,0,0,0,1.45.5L39.66,13l0,1.22a13.29,13.29,0,0,1-2.12.25,2.64,2.64,0,0,1-2.24-.86,4.74,4.74,0,0,1-.65-2.82A4.42,4.42,0,0,1,35.37,8,2.74,2.74,0,0,1,37.61,7.22Z"/><path d="M41.17,14.36V7.22h1.51v1a6.64,6.64,0,0,1,2.38-1V8.74A9.81,9.81,0,0,0,43,9.35l-.31.13v4.88Z"/><path d="M51.39,9.52v3.19a.66.66,0,0,0,.16.45.77.77,0,0,0,.45.19l0,1.16A2.94,2.94,0,0,1,50.1,14a5.32,5.32,0,0,1-2.25.52q-2.08,0-2.08-2.22a1.9,1.9,0,0,1,.57-1.54,3.08,3.08,0,0,1,1.74-.57l1.8-.15v-.5a1,1,0,0,0-.24-.78,1,1,0,0,0-.72-.22q-.89,0-2.24.11l-.45,0-.06-1.08A12.15,12.15,0,0,1,49,7.22a2.58,2.58,0,0,1,1.84.55A2.36,2.36,0,0,1,51.39,9.52Zm-3.13,1.73a.94.94,0,0,0-1,1q0,1,.85,1A5.4,5.4,0,0,0,49.63,13l.25-.08V11.1Z"/><path d="M55.92,7.22a9.33,9.33,0,0,1,1.75.2l.35.07L58,8.68q-1.1-.11-1.64-.11A1.72,1.72,0,0,0,54.9,9a3.12,3.12,0,0,0-.36,1.79,3.38,3.38,0,0,0,.35,1.82,1.68,1.68,0,0,0,1.45.5L58,13l0,1.22a13.29,13.29,0,0,1-2.12.25,2.64,2.64,0,0,1-2.24-.86A4.74,4.74,0,0,1,53,10.84,4.42,4.42,0,0,1,53.68,8,2.74,2.74,0,0,1,55.92,7.22Z"/><path d="M58.78,7.22h1.5l1.54,5.84h.38l1.48-5.84h1.51l-2.45,9.41h-1.5l.64-2.27h-1.2Z"/><path d="M72.4,14.36H67V4.78h1.55V13H72.4Z"/><path d="M78.66,9.52v3.19a.66.66,0,0,0,.16.45.77.77,0,0,0,.45.19l0,1.16A2.94,2.94,0,0,1,77.37,14a5.32,5.32,0,0,1-2.25.52Q73,14.51,73,12.29a1.9,1.9,0,0,1,.57-1.54,3.08,3.08,0,0,1,1.74-.57l1.8-.15v-.5a1,1,0,0,0-.24-.78,1,1,0,0,0-.72-.22q-.89,0-2.24.11l-.45,0-.06-1.08a12.15,12.15,0,0,1,2.8-.36,2.58,2.58,0,0,1,1.84.55A2.36,2.36,0,0,1,78.66,9.52Zm-3.13,1.73a.94.94,0,0,0-1,1q0,1,.85,1A5.4,5.4,0,0,0,76.9,13l.25-.08V11.1Z"/><path d="M83.83,7.22a2.49,2.49,0,0,1,2.08.8,4.73,4.73,0,0,1,.64,2.84,4.15,4.15,0,0,1-.75,2.84,3.55,3.55,0,0,1-2.66.8q-.66,0-2.08-.13l-.48,0V4.78h1.51V7.64A4.44,4.44,0,0,1,83.83,7.22Zm-.7,5.94a1.73,1.73,0,0,0,1.49-.52A3.2,3.2,0,0,0,85,10.85a3.59,3.59,0,0,0-.31-1.77,1.11,1.11,0,0,0-1-.51,4.48,4.48,0,0,0-1.34.21l-.22.07V13.1Q82.85,13.16,83.13,13.16Z"/><polygon points="68.57 16.45 68.57 17.82 88.47 17.82 88.47 1.53 68.57 1.53 68.57 2.9 67.03 2.9 67.03 0 90 0 90 19.35 67.03 19.35 67.03 16.45 68.57 16.45"/></svg>