<svg xmlns="http://www.w3.org/2000/svg" viewBox="0 0 33.4 12"><path d="M21,1.19V3.32h-.33a1.8,1.8,0,0,0-.66-1.23,2.82,2.82,0,0,0-1.64-.41h-.66V7.91a1.31,1.31,0,0,0,.25.9,1.86,1.86,0,0,0,1.06.25v.33H12.93V9.06A1.69,1.69,0,0,0,14,8.81a1,1,0,0,0,.33-.9V1.68h-.66A2.89,2.89,0,0,0,12,2a1.75,1.75,0,0,0-.57,1.23H11V1.11Z" fill-rule="evenodd"/><path d="M33.36,7.27,32.89,7l-.15,0a4.21,4.21,0,0,1-1.37,1h0a3.06,3.06,0,0,1-1.43.3,2.05,2.05,0,0,1-1.78-.81h0a3.7,3.7,0,0,1-.67-2.37l.73,0a22.2,22.2,0,0,0,4.45-.47l.06,0L33,4.68l.09-.12V1.33L33,1.21H32.6l-.11.07a1.09,1.09,0,0,1-.15.25h0l-.09,0s-.07,0-.21,0-.45-.09-1-.23a7.33,7.33,0,0,0-1.92-.24,6,6,0,0,0-3.46,1A9.15,9.15,0,0,1,24.36,2l-1.18-.21L22.79.55a.66.66,0,0,0-.39-.24H20.94A.55.55,0,0,0,20.43,0a.52.52,0,0,0-.55.47c0,.19.15.32.36.37l.19,0h1.65l1.26,3.61a.22.22,0,0,0,.08.13v0h0l.1.06,0,0h.08l.37.06c0,.13,0,.27,0,.41a4.22,4.22,0,0,0,.32,1.7v0a6.35,6.35,0,0,0,1.2,1.36h0A5.8,5.8,0,0,0,27.15,9a6.85,6.85,0,0,0,1.92.32,6.25,6.25,0,0,0,2.48-.48A4.4,4.4,0,0,0,33.4,7.46Zm-2-5a2.29,2.29,0,0,1,.32.17,1.78,1.78,0,0,1,.34.36,21.07,21.07,0,0,1-4,.32h-.16a2.32,2.32,0,0,1,.26-.39,2.07,2.07,0,0,1,.3-.28A23.38,23.38,0,0,0,31.34,2.28Zm-2.5-.05A2.58,2.58,0,0,1,29.93,2a3.88,3.88,0,0,1,.86.1C30.15,2.18,29.49,2.22,28.84,2.23ZM27.78,3.36l.27,0A24.19,24.19,0,0,0,32.13,3a2.73,2.73,0,0,1,.23.57A23.88,23.88,0,0,1,28,4h-.46A3.27,3.27,0,0,1,27.78,3.36Zm-3.48.33-.52-.09-.24-.74,1.12.19A3.33,3.33,0,0,0,24.3,3.69Zm-.07.16a3.43,3.43,0,0,0-.11.34l-.16,0-.12-.38Zm3.24,1.08a5.53,5.53,0,0,1,.06-.72l.51,0a24.14,24.14,0,0,0,4.38-.4,6.35,6.35,0,0,1,.11.65,21.46,21.46,0,0,1-4.33.46ZM23.26,2l1.09.19a6.07,6.07,0,0,1,1,.11,3.9,3.9,0,0,0-.61.59c-.43-.06-.86-.13-1.3-.22Z" fill-rule="evenodd"/><path d="M0,9.35V9a1.86,1.86,0,0,0,1.06-.25,1.31,1.31,0,0,0,.33-.9V2.63a1.49,1.49,0,0,0-.33-.9A1.86,1.86,0,0,0,0,1.48V1.15H9.42V3.45H9a1.94,1.94,0,0,0-.74-1.39,4.22,4.22,0,0,0-2-.33H4.75v3.2h.16a2.08,2.08,0,0,0,1.31-.41A2.17,2.17,0,0,0,6.8,3.2h.33V7.13H6.72a2.18,2.18,0,0,0-.49-1.31,2.17,2.17,0,0,0-1.39-.41H4.75L4.67,8c0,.41.08.66.25.74a3.24,3.24,0,0,0,1.23.16,4.33,4.33,0,0,0,2.29-.49A2.55,2.55,0,0,0,9.58,6.81h.49L9.42,9.35Z" fill-rule="evenodd"/><path d="M27,9.49a1.25,1.25,0,1,0,1.25,1.25A1.25,1.25,0,0,0,27,9.49Zm0,2a.78.78,0,1,1,.78-.78A.78.78,0,0,1,27,11.53Z" fill-rule="evenodd"/><path d="M30.62,9.49a1.25,1.25,0,1,0,1.25,1.25A1.25,1.25,0,0,0,30.62,9.49Zm0,2a.78.78,0,1,1,.78-.78A.78.78,0,0,1,30.62,11.53Z" fill-rule="evenodd"/></svg>