<svg xmlns="http://www.w3.org/2000/svg" viewBox="0 0 34.03 10.33"><path d="M5.34,3.64A2.14,2.14,0,0,0,3,3.17a2.15,2.15,0,0,0-.69.47,2.27,2.27,0,0,0-.46.69,2.06,2.06,0,0,0-.17.84A2.09,2.09,0,0,0,1.83,6a2.25,2.25,0,0,0,.46.69A2.14,2.14,0,0,0,3,7.16a2.1,2.1,0,0,0,.84.17V8.66a4,4,0,0,1-1.49-.28,3.93,3.93,0,0,1-1.22-.75A3.53,3.53,0,0,1,.3,6.52,3.15,3.15,0,0,1,0,5.16,3.12,3.12,0,0,1,.3,3.8a3.56,3.56,0,0,1,.82-1.11,3.94,3.94,0,0,1,1.22-.75,4,4,0,0,1,1.49-.28,4,4,0,0,1,2.58.92ZM4.49,8.49V5.83H3.83V4.5H6.15v4Z"/><path d="M7.5,8.49V1.84H9.16V7.16h3.32V8.49Z"/><path d="M31.2,6.49a1.75,1.75,0,0,1-.18.78,2,2,0,0,1-.49.64,2.34,2.34,0,0,1-.74.43,2.67,2.67,0,0,1-.92.15H28V7.16h.83a.67.67,0,0,0,.67-.67.63.63,0,0,0-.2-.47.65.65,0,0,0-.47-.19H28V4.5h.67a.63.63,0,0,0,.47-.2.65.65,0,0,0,.19-.47.65.65,0,0,0-.66-.66H27.37V8.49H25.71V1.84h3a3,3,0,0,1,1,.15,2.07,2.07,0,0,1,.73.43,1.84,1.84,0,0,1,.45.63,2,2,0,0,1,.15.78,1.63,1.63,0,0,1-.16.71,1.77,1.77,0,0,1-.42.56,1.57,1.57,0,0,1,.55.57A1.62,1.62,0,0,1,31.2,6.49Z"/><path d="M32.37,8.49V1.84H34V8.49Z"/><path d="M16.88,9.92A5.7,5.7,0,0,1,15.1,8.81a5.28,5.28,0,0,1-1.2-1.64,4.78,4.78,0,0,1-.09-3.81,5.08,5.08,0,0,1,1-1.53A5.56,5.56,0,0,1,16.25.69,5.84,5.84,0,0,1,18.1.08v2a3,3,0,0,0-.89.46,3.33,3.33,0,0,0-.69.69,3.22,3.22,0,0,0-.46.87,3.19,3.19,0,0,0,.09,2.26,3.32,3.32,0,0,0,.68,1,3.17,3.17,0,0,0,1,.69,3.09,3.09,0,0,0,1.24.25v2A5.93,5.93,0,0,1,16.88,9.92Zm7.87-4.76A4.74,4.74,0,0,1,24.4,7a5.08,5.08,0,0,1-1,1.53,5.56,5.56,0,0,1-1.48,1.13,5.83,5.83,0,0,1-1.85.61v-2A3.2,3.2,0,0,0,21,7.75a3.25,3.25,0,0,0,.7-.69,3.2,3.2,0,0,0,.62-1.9A3,3,0,0,0,22,3.92a3.36,3.36,0,0,0-.68-1,3.18,3.18,0,0,0-1-.69A3.1,3.1,0,0,0,19.11,2V0A5.89,5.89,0,0,1,21.3.41a5.82,5.82,0,0,1,1.8,1.11,5.26,5.26,0,0,1,1.21,1.63A4.61,4.61,0,0,1,24.75,5.16Z"/><path d="M19.46,4.69c-.09,0-.08,0-.09-.09a.11.11,0,0,1,.05-.12h.14s0,0,0-.06h0s0,0,0,0,0,0,0,0h0s0,0,0,0a0,0,0,0,0,0,0,.28.28,0,0,1,0-.05h0s0,0,0,.06l-.06,0s0,0,0,0v0h0s0,0,0,0l0,0h.05c0-.06,0-.08.07-.07s0,0,0,.06,0,.08.08.09l.07,0a0,0,0,0,0,0,0,.37.37,0,0,1,0-.05h0a0,0,0,0,1,0,0V4a0,0,0,0,1,0,0h0a.15.15,0,0,0,.09-.06.39.39,0,0,1,.32-.14h0l.21.07a0,0,0,0,1,0,0h0l0,0a0,0,0,0,1,.08,0s.07,0,.11,0l.07,0a.09.09,0,0,1,.08,0,2.27,2.27,0,0,1,.61,1.26s0,0,0,0a.12.12,0,0,1-.1-.06.08.08,0,0,0-.07,0,.35.35,0,0,1-.14,0,.83.83,0,0,1-.21-.09l-.06,0a0,0,0,0,0,0,0l.07.07h0L21,5a.06.06,0,0,1,.06,0l.05.05s0,.05,0,.08a.42.42,0,0,0-.13.11l0,0-.09.06a.11.11,0,0,1-.15-.05.3.3,0,0,0-.06-.12l0,0A.13.13,0,0,0,20.54,5l0,0V5l.13.21a1.06,1.06,0,0,1,.05.13v0s0,0,0,0h.18s0,0,0,0a.17.17,0,0,0,0,0,.23.23,0,0,1-.15.2l0,0-.1.19s0,0,0,0a.22.22,0,0,1,0,.14.1.1,0,0,1-.07.12l0,0s0,.07,0,.11a.35.35,0,0,1,0,.08l-.13.24a.09.09,0,0,1-.08.05h-.16L20,6.64s0,0,0,0a.16.16,0,0,0,0-.09.17.17,0,0,1,0-.1.23.23,0,0,0,0-.1.22.22,0,0,1,0-.22.16.16,0,0,0,0-.12.46.46,0,0,0-.07-.17.11.11,0,0,1,0-.15h0l0,0s-.06,0-.08,0a.09.09,0,0,0-.09,0l-.16,0h-.13l-.08-.07a.1.1,0,0,1,0-.05,0,0,0,0,0,0,0c-.06,0-.07-.09-.09-.15a.06.06,0,0,1,0,0,0,0,0,0,0,0,0,.15.15,0,0,1,0-.13A.25.25,0,0,1,19.24,5l0,0a.29.29,0,0,0,.07-.12s0,0,0,0Zm0,0,0,0h.12a.37.37,0,0,0,.17,0s.06,0,.06,0a0,0,0,0,0,0,0l0,0s0,0,.05,0l.09,0,0,0,.05-.05h0s.05,0,.08,0h.06l.1,0h0s0,0,0-.08,0,0,0,0h0a.08.08,0,0,1-.1,0,.2.2,0,0,1-.09-.11s0,0,0,0,0,0,0,0,0,0,0,0h-.05a.14.14,0,0,1-.05-.07.26.26,0,0,0,0-.06,0,0,0,0,0,0,0,.08.08,0,0,1-.06,0l0,0v0l.06.05a.15.15,0,0,1,.06.05s0,0,0,0a.09.09,0,0,1-.12,0l0,0,0,0a0,0,0,0,0,0,0s0,0,0,0h0l-.05.07,0,0A.2.2,0,0,1,19.5,4.69Zm.7-.64h-.1a.06.06,0,0,1,0-.09h0L20,4l0,.11a.07.07,0,0,1-.07,0,0,0,0,0,1,0,0v0s0,0,0,.06,0,0,0,0H20a.13.13,0,0,0,.09,0l0,0a.07.07,0,0,1,.12,0Zm.13-.15h0l0,0,0,0Z"/><path d="M18.18,3.64s0,0,0,0h0l0,0a.1.1,0,0,1,.09,0l.15,0h.15s0,0,0,0l0,0-.06,0,.08,0a.34.34,0,0,1,.2,0h.22l.14,0h.07l.16,0h0s0,0,0,0,0,0,0,0h-.07a0,0,0,0,0,0,0,.09.09,0,0,1-.06.07l-.06,0,0,0a0,0,0,0,1,0,0l0,0s0,0-.06,0h-.05l-.15,0h0a.27.27,0,0,1-.16.07h0a.16.16,0,0,1-.13.09A.11.11,0,0,1,18.61,4a.38.38,0,0,1,0-.06.07.07,0,0,1,0-.06l0,0a.08.08,0,0,0,0-.13l-.11,0a.07.07,0,0,1-.06,0l-.06,0-.08,0h-.05l0,0,.13,0s0,0,0,0v0s0,0,0,0l0,0s0,0,0,0l-.08,0,0,0a.08.08,0,0,1-.05,0H18.2V4a.12.12,0,0,0,.08,0s0,0,0,0a.28.28,0,0,1,0,.06s0,.07.06.09,0,0,0,.05l0,0s0,0,0,0h0s0,0,0,.05a.06.06,0,0,1-.06,0h-.07l0,0,0,0,0,0h-.1l-.09,0s0,0,0,0l.05,0s0,0,0,0h0l-.06,0s-.06,0,0-.05l0,0a.25.25,0,0,1-.1.06l0,0-.07.07,0,0s0,0,0,0a.11.11,0,0,1-.07.11l-.07,0a.07.07,0,0,0,0,.09.1.1,0,0,1,0,.09,0,0,0,0,1,0,0,0,0,0,0,1,0,0V5s0,0,0,0l0,0s0,0-.05,0l0,0s0,0,0,0a0,0,0,0,0-.08,0L17.16,5a0,0,0,0,0,0,0,.2.2,0,0,1,0,0,.44.44,0,0,0,0,.08s0,0,.07,0a0,0,0,0,0,0,0v0a0,0,0,1,1,.09,0l0,.07h.07s.05,0,.05.07a.67.67,0,0,0,0,.08s0,0,0,0h.07s0,0,.06,0l.07,0,0,0h0l0,0s0,0,0,0a.13.13,0,0,0,.11,0,.14.14,0,0,1,.1,0,.39.39,0,0,0,.17.09.11.11,0,0,1,.07,0l0,0a.08.08,0,0,1,0,.08l0,0a.09.09,0,0,1,.11,0h0a.09.09,0,0,1,.09,0l.12,0a.05.05,0,0,1,0,0,.24.24,0,0,1-.08.23v0s0,.08,0,.12a.24.24,0,0,1-.05.13h-.07l0,0a.09.09,0,0,0,0,.08s0,0,0,.06-.06.1-.11.14H18.2v0s0,0,0,.07l-.07.06a0,0,0,0,0,0,0,.34.34,0,0,1,0,.07.1.1,0,0,0,0,0s0,.09,0,.14l0,0a.15.15,0,0,1,0,.1l0,0a.09.09,0,0,1-.08,0l0,0a.22.22,0,0,1-.11-.11.19.19,0,0,1,0-.13.06.06,0,0,0,0-.06,0,0,0,0,1,0,0,.32.32,0,0,1,0-.06c0-.07,0-.14,0-.21s0-.16,0-.25a.13.13,0,0,0-.1-.14.09.09,0,0,1-.06-.09.05.05,0,0,0,0,0,.18.18,0,0,1-.08-.1l0,0a.09.09,0,0,1,0-.09.05.05,0,0,0,0,0,.16.16,0,0,1,0-.14l.06-.1a.08.08,0,0,0,0-.05s0,0-.05,0h0a.25.25,0,0,1-.13-.12s0,0,0,0a.18.18,0,0,1-.11-.05l-.06,0-.07,0L17,5.22a.14.14,0,0,1-.07-.15,2.29,2.29,0,0,1,.55-1.18,0,0,0,0,1,0,0h.16l.12,0a.09.09,0,0,0,.06-.06l0-.08a0,0,0,0,1,0,0l.13,0h0a0,0,0,0,1,0-.05A.08.08,0,0,1,18.18,3.64Zm-.33.61h0l0-.07L18,4A.13.13,0,0,1,18.15,4h0s0-.06,0-.08l.07,0a.17.17,0,0,0-.12,0l0,0a.07.07,0,0,1-.06,0l-.11,0h0a.13.13,0,0,1-.09,0,.18.18,0,0,0-.09,0l0,0a0,0,0,0,0,0,.06h0a.28.28,0,0,0,.12,0s0,0,0,0Z"/><path d="M20.89,6.15l0,.06,0,.05a.53.53,0,0,1-.07.17h0a.14.14,0,0,1-.09,0h0c-.07-.05,0-.08,0-.14a.06.06,0,0,0,0,0,.08.08,0,0,1,.05-.09h0l.06-.06V6l0,0,0,0Z"/><path d="M19.33,3.87s0,0,.05,0a0,0,0,0,1,0,.05l-.07,0a.06.06,0,0,1-.07,0h0l0,0a.05.05,0,0,1,0,0h0l.11,0Z"/></svg>