<svg xmlns="http://www.w3.org/2000/svg" viewBox="0 0 57.5 9.65"><path d="M.77.69A.21.21,0,0,0,.92.62.25.25,0,0,0,1,.45a.25.25,0,0,0,0-.12A.22.22,0,0,0,.87.25V0a.47.47,0,0,1,.22.16.42.42,0,0,1,.08.25.45.45,0,0,1,0,.18A.44.44,0,0,1,1,.77.46.46,0,0,1,.88.86.45.45,0,0,1,.71.9a.46.46,0,0,1-.17,0A.44.44,0,0,1,.4.78.47.47,0,0,1,.29.63a.41.41,0,0,1,0-.17A.44.44,0,0,1,.3.25.48.48,0,0,1,.45.08L.57,0,.73,0h0ZM.61.22A.24.24,0,0,0,.48.3a.25.25,0,0,0,0,.15A.23.23,0,0,0,.49.6.24.24,0,0,0,.61.68ZM.28,1.58h.1a.27.27,0,0,1-.12-.23.35.35,0,0,1,0-.16A.3.3,0,0,1,.4,1.08L.51,1h.63v.2H.76a.49.49,0,0,0-.24,0,.15.15,0,0,0-.06.14.16.16,0,0,0,.07.14.49.49,0,0,0,.24,0h.37v.19H.28ZM.71,2.81a.45.45,0,0,1-.17,0,.43.43,0,0,1-.15-.1.46.46,0,0,1-.1-.15.43.43,0,0,1,0-.17.47.47,0,0,1,0-.17A.45.45,0,0,1,.38,2a.46.46,0,0,1,.15-.1.43.43,0,0,1,.17,0,.49.49,0,0,1,.18,0A.44.44,0,0,1,1,2a.43.43,0,0,1,.1.15.46.46,0,0,1,0,.18A.43.43,0,0,1,1,2.68a.47.47,0,0,1-.15.09A.46.46,0,0,1,.71,2.81Zm0-.21a.27.27,0,0,0,.19-.07A.23.23,0,0,0,1,2.36a.23.23,0,0,0-.07-.18A.27.27,0,0,0,.7,2.12a.24.24,0,0,0-.18.07.25.25,0,0,0,0,.35A.25.25,0,0,0,.7,2.6Zm.44.58H.46v.13H.28V3.19H0V3H.28V2.85H.46V3h.68Zm-.29.58h0a.14.14,0,0,0,.09,0,.09.09,0,0,0,0-.08A.1.1,0,0,0,1,3.6a.09.09,0,0,0-.07,0l-.06,0a.22.22,0,0,0,0,.07l0,.09,0,.07a.25.25,0,0,1-.09.07l-.11,0a.25.25,0,0,1-.18-.08.25.25,0,0,1-.08-.19.25.25,0,0,1,.07-.18A.27.27,0,0,1,.51,3.4v.18h0l-.06,0a.08.08,0,0,0,0,.06.08.08,0,0,0,0,.06l.06,0s.07,0,.1-.12l0,0a.37.37,0,0,1,.11-.15.26.26,0,0,1,.16,0,.27.27,0,0,1,.2.08.28.28,0,0,1,.08.2.26.26,0,0,1-.08.2A.35.35,0,0,1,.86,4Zm.29,1H0v-.2H1.14Zm0,.37H1a.22.22,0,0,1,.09.1.4.4,0,0,1,0,.17A.43.43,0,0,1,1,5.7a.44.44,0,0,1-.32.13.47.47,0,0,1-.17,0A.43.43,0,0,1,.39,5.7a.41.41,0,0,1-.1-.14.46.46,0,0,1,0-.18.38.38,0,0,1,0-.16.26.26,0,0,1,.09-.11H.28v-.2h.86ZM.7,5.62a.25.25,0,0,0,.18-.07A.24.24,0,0,0,1,5.37a.23.23,0,0,0-.07-.17.24.24,0,0,0-.17-.07.25.25,0,0,0-.18.07.23.23,0,0,0-.08.17.24.24,0,0,0,.25.25Zm-.25.23A.24.24,0,0,0,.51,6a.28.28,0,0,0,.19,0h.44v.2H.28V6.08h.1A.3.3,0,0,1,.29,6a.27.27,0,0,1,0-.12Zm.69.78H1a.27.27,0,0,1,.12.23.31.31,0,0,1-.1.25.42.42,0,0,1-.29.09H.28V7H.67A.49.49,0,0,0,.9,7,.15.15,0,0,0,1,6.82.16.16,0,0,0,.9,6.67a.5.5,0,0,0-.24,0H.28v-.2h.86Zm0,1H.46v.13H.28V7.62H0v-.2H.28V7.29H.46v.13h.68Zm0,.43H1a.22.22,0,0,1,.09.1.4.4,0,0,1,0,.17A.43.43,0,0,1,1,8.64a.44.44,0,0,1-.32.13.47.47,0,0,1-.17,0,.43.43,0,0,1-.14-.09.41.41,0,0,1-.1-.14.46.46,0,0,1,0-.18.38.38,0,0,1,0-.16.26.26,0,0,1,.09-.11H.28v-.2h.86ZM.7,8.56a.25.25,0,0,0,.18-.07A.24.24,0,0,0,1,8.31a.23.23,0,0,0-.07-.17.24.24,0,0,0-.17-.07.25.25,0,0,0-.18.07.23.23,0,0,0-.08.17.25.25,0,0,0,.25.25Zm-.42.89h.1a.27.27,0,0,1-.12-.23.35.35,0,0,1,0-.16A.3.3,0,0,1,.4,8.95l.11,0h.63v.2H.76a.49.49,0,0,0-.24,0,.15.15,0,0,0-.06.14.16.16,0,0,0,.07.14.49.49,0,0,0,.24,0h.37v.19H.28Z" fill-rule="evenodd"/><path d="M56,3.2h1.35a.14.14,0,0,0,.13-.14V2.59a.14.14,0,0,0-.13-.14H53.82a.14.14,0,0,0-.13.14v.47a.14.14,0,0,0,.13.14h1.35V7.05a.14.14,0,0,0,.13.14h.6A.14.14,0,0,0,56,7.05Z" fill-rule="evenodd"/><path d="M52.56,6.45V3.2h.63a.14.14,0,0,0,.13-.14V2.59a.14.14,0,0,0-.13-.14H51.08a.14.14,0,0,0-.13.14v.47a.14.14,0,0,0,.13.14h.63V6.45h-.63a.14.14,0,0,0-.13.14v.47a.14.14,0,0,0,.13.14h2.11a.14.14,0,0,0,.13-.14V6.58a.14.14,0,0,0-.13-.14Z" fill-rule="evenodd"/><path d="M47.45,3.95l2,3.11a.23.23,0,0,0,.19.14h.63a.14.14,0,0,0,.13-.14V2.59a.14.14,0,0,0-.13-.14h-.6a.14.14,0,0,0-.13.14V5.7h0l-2-3.11a.23.23,0,0,0-.19-.14H46.7a.14.14,0,0,0-.13.14V7.05a.14.14,0,0,0,.13.14h.6a.14.14,0,0,0,.13-.14V3.95Z" fill-rule="evenodd"/><path d="M44,3.47h0l.67,2H43.3Zm-.55-.88L41.82,7.05a.1.1,0,0,0,.09.14h.63a.21.21,0,0,0,.19-.14L43,6.18h2l.28.88a.2.2,0,0,0,.19.14h.63a.1.1,0,0,0,.09-.14L44.56,2.59a.2.2,0,0,0-.16-.14h-.82A.2.2,0,0,0,43.42,2.59Z" fill-rule="evenodd"/><path d="M38.38,4.69V3.2h1.29a.68.68,0,0,1,.72.68V4a.68.68,0,0,1-.72.68Zm2.87-.91A1.35,1.35,0,0,0,39.8,2.46H37.66a.14.14,0,0,0-.13.14V7.05a.14.14,0,0,0,.13.14h.6a.14.14,0,0,0,.13-.14V5.43h1.17l1,1.62a.22.22,0,0,0,.19.14h.69a.08.08,0,0,0,.06-.14L40.4,5.33v0a1.27,1.27,0,0,0,.85-1.18Z" fill-rule="evenodd"/><path d="M34.43,2.46A1.28,1.28,0,0,0,33,3.84V5.94c0,.84.5,1.25,1.38,1.25h2.26c.06,0,.14-.08.14-.15V4.59a.14.14,0,0,0-.13-.14H35.06a.14.14,0,0,0-.13.14v.47a.14.14,0,0,0,.13.14H36V6.41H34.57c-.38,0-.67-.18-.67-.58V3.95a.72.72,0,0,1,.66-.74h1.73a.14.14,0,0,0,.13-.14V2.59a.14.14,0,0,0-.13-.14Z" fill-rule="evenodd"/><path d="M29.12,3.47h0l.67,2H28.44Zm-.55-.88L27,7.05a.1.1,0,0,0,.09.14h.63a.21.21,0,0,0,.19-.14l.28-.88h2l.28.88a.2.2,0,0,0,.19.14h.63a.1.1,0,0,0,.09-.14L29.7,2.59a.2.2,0,0,0-.16-.14h-.82A.2.2,0,0,0,28.57,2.59Z" fill-rule="evenodd"/><path d="M22.62,7.05a.14.14,0,0,0,.13.14h.6a.14.14,0,0,0,.13-.14V5.13h.88l1.17,1.93a.28.28,0,0,0,.19.14h.69a.08.08,0,0,0,.06-.14l-1.39-2.3,1.26-2.16a.08.08,0,0,0-.06-.14h-.69a.27.27,0,0,0-.19.14l-1,1.79h-.88V2.59a.14.14,0,0,0-.13-.14h-.6a.14.14,0,0,0-.13.14Z" fill-rule="evenodd"/><path d="M19.22,6.45V5.16H21A.14.14,0,0,0,21.11,5V4.55A.14.14,0,0,0,21,4.42H19.22V3.2h2.52a.14.14,0,0,0,.13-.14V2.59a.14.14,0,0,0-.13-.14H18.49a.14.14,0,0,0-.13.14V7.07a.11.11,0,0,0,.11.11H21.8a.14.14,0,0,0,.13-.14V6.58a.14.14,0,0,0-.13-.14Z" fill-rule="evenodd"/><path d="M14.6,4.69V3.2h1.29a.68.68,0,0,1,.72.68V4a.68.68,0,0,1-.72.68Zm2.87-.91A1.35,1.35,0,0,0,16,2.46H13.88a.14.14,0,0,0-.13.14V7.05a.14.14,0,0,0,.13.14h.6a.14.14,0,0,0,.13-.14V5.43h1.17l1,1.62a.22.22,0,0,0,.19.14h.69a.08.08,0,0,0,.06-.14l-1.1-1.72v0a1.27,1.27,0,0,0,.85-1.18Z" fill-rule="evenodd"/><path d="M1.76,0h9.65V8.48L4.6,9.31l.54-.07V4.3H6.65a.54.54,0,0,0,.54-.54V3.64a.54.54,0,0,0-.54-.54H5.14V2.6H6.53A1.07,1.07,0,0,1,7.67,3.69,1.07,1.07,0,0,1,6.53,4.78H5.47v.43L7.76,8H8.93L7,5.61A1.89,1.89,0,0,0,8.58,3.69a1.94,1.94,0,0,0-2-2H4.24V9.35l-2.48.3Z" fill-rule="evenodd"/></svg>