<svg xmlns="http://www.w3.org/2000/svg"  viewBox="0 0 34.62 7.45"><path d="M3.73,3.73V0H7.46c0,1.18,0,2.36,0,3.53,0,.16,0,.2-.2.2Z"/><path d="M0,7.45c0-1.2,0-2.39,0-3.59,0-.13.06-.14.16-.14H3.73V7.45Z"/><path d="M17.65,2.86c0,.39,0,.79,0,1.18,0,.1,0,.14-.14.14H15.81a.37.37,0,0,1-.4-.39c0-.72,0-1.43,0-2.15,0-.09,0-.12.12-.12a4.33,4.33,0,0,0,.51,0c.15,0,.17.05.17.18,0,.55,0,1.1,0,1.65,0,.14,0,.18.18.18.47,0,.47,0,.47-.47s0-.92,0-1.39c0-.13,0-.16.16-.16h.49c.12,0,.15,0,.15.15,0,.4,0,.8,0,1.2Z"/><path d="M26.55,2.86c0-.4,0-.8,0-1.2,0-.1,0-.14.14-.14h1.63a.44.44,0,0,1,.48.46q0,.45,0,.89a.46.46,0,0,1-.49.47h-.78c-.13,0-.18,0-.17.17s0,.37,0,.55,0,.14-.13.13h-.53c-.12,0-.15,0-.15-.15C26.55,3.64,26.55,3.25,26.55,2.86Zm1.12-.68h-.11c-.16,0-.22,0-.21.2,0,.36,0,.36.37.36s.27,0,.27-.25S28,2.17,27.67,2.17Z"/><path d="M8.19,4.18l.2-.57c0-.09.1-.08.17-.08.29,0,.57,0,.86,0s.14-.1.14-.2,0-.2-.15-.19-.39,0-.59,0a.46.46,0,0,1-.52-.51c0-.22,0-.43,0-.65a.44.44,0,0,1,.43-.46h1.65l-.19.57c0,.08-.08.08-.15.08-.27,0-.53,0-.8,0s-.14.11-.14.21,0,.22.14.21.42,0,.63,0a.45.45,0,0,1,.48.47c0,.22,0,.44,0,.67a.42.42,0,0,1-.4.45C9.37,4.19,8.79,4.18,8.19,4.18Z"/><path d="M10.73,2.86c0-.4,0-.8,0-1.2,0-.11,0-.14.14-.14h1.75c.12,0,.13,0,.1.14-.16.51-.16.51-.7.51a1.78,1.78,0,0,1-.27,0c-.19,0-.24,0-.23.23s0,.2.19.19.46,0,.68,0,.13,0,.13.13c0,.37,0,.37-.35.37h-.51c-.1,0-.16,0-.14.14a.7.7,0,0,1,0,.17c0,.12,0,.15.15.15h.93c.12,0,.13,0,.1.14-.17.51-.16.51-.7.51H10.89c-.14,0-.17,0-.17-.17C10.74,3.63,10.73,3.24,10.73,2.86Z"/><path d="M13.09,2.83c0-.38,0-.76,0-1.14,0-.13,0-.18.16-.17h1.63c.21,0,.22,0,.16.22-.15.43-.15.43-.61.43H14c-.18,0-.13.12-.12.21s-.06.22.12.21h.74c.1,0,.13,0,.13.13,0,.37,0,.37-.35.37H14c-.11,0-.15,0-.14.14a.81.81,0,0,1,0,.17c0,.11,0,.14.14.14H15c.14,0,.15,0,.11.16-.17.49-.16.49-.68.49h-1.1c-.15,0-.21,0-.2-.19C13.1,3.61,13.09,3.22,13.09,2.83Z"/><path d="M24.27,2.81c0-.41,0-.81,0-1.22,0-.11,0-.16.15-.15a4,4,0,0,0,.46,0c.1,0,.13,0,.13.13s0,.34,0,.51,0,.12.12.12h.63a.48.48,0,0,1,.51.49c0,.45,0,.9,0,1.35,0,.1,0,.15-.14.14s-.43.06-.55,0,0-.34,0-.52,0-.47,0-.7,0-.14-.13-.15c-.4,0-.4,0-.4.38s0,.6,0,.89c0,.11,0,.14-.14.14a2.66,2.66,0,0,0-.42,0c-.15,0-.18-.05-.17-.18C24.27,3.61,24.27,3.21,24.27,2.81Z"/><path d="M34.62,4.19h-.78c-.07,0-.09,0-.11-.1l-.19-.49c0-.06-.06-.11-.14-.1s-.07.08-.07.13,0,.29,0,.44,0,.13-.13.13h-.47c-.11,0-.13,0-.13-.13q0-1.24,0-2.49c0-.1,0-.13.13-.13h.47c.1,0,.13,0,.13.13q0,.55,0,1.1c0,.06-.05.16.07.19s.12-.08.16-.15v0c.07-.16.08-.42.22-.46a2.34,2.34,0,0,1,.71,0c.11,0,.06.07,0,.11l-.4.77s-.08.06,0,.09c.22.17.25.45.37.67S34.57,4.06,34.62,4.19Z"/><path d="M19.08,1.52H20c.14,0,.17,0,.17.17,0,.48,0,.49-.48.48-.18,0-.25,0-.24.23,0,.54,0,1.08,0,1.62,0,.13,0,.18-.17.17s-.47.09-.6,0,0-.39,0-.59c0-.41,0-.82,0-1.24,0-.12,0-.15-.15-.15h-.55c-.09,0-.12,0-.08-.11V2c.14-.53.14-.53.69-.53Z"/><path d="M30.81,3.38c0,.22,0,.44,0,.66s0,.15-.14.14H29.46A.47.47,0,0,1,29,3.72a2.14,2.14,0,0,1,0-.28A.46.46,0,0,1,29.44,3H30c.08,0,.13,0,.13-.11s-.06-.1-.14-.1h-.8c-.12,0-.16,0-.11-.15.15-.43.15-.43.59-.43h.66a.48.48,0,0,1,.51.51C30.82,2.94,30.81,3.16,30.81,3.38Zm-.94,0c-.06,0-.2-.07-.2.13s.13.13.22.13.21,0,.2-.13S30,3.4,29.87,3.38Z"/><path d="M21.33,4.19h-.49a.47.47,0,0,1-.48-.48q0-.5,0-1a.48.48,0,0,1,.5-.49h.8a.48.48,0,0,1,.49.49.76.76,0,0,1-.07.46.48.48,0,0,1-.41.23H21.2c-.08,0-.13,0-.13.11s0,.11.13.11H22c.13,0,.17,0,.12.16-.15.42-.15.42-.6.42ZM21.26,3c.1,0,.19,0,.19-.12s-.12-.12-.21-.12-.17,0-.18.12S21.2,3,21.26,3Z"/><path d="M24.08,3.61c-.07.18-.13.34-.19.5s-.09.08-.15.08h-.85a.47.47,0,0,1-.47-.47c0-.35,0-.7,0-1a.46.46,0,0,1,.46-.46h1.06c.12,0,.12,0,.08.14-.16.45-.16.45-.64.45-.28,0-.24,0-.24.24s-.08.43,0,.55.35,0,.53,0Z"/><path d="M31.11,3.35c0-.22,0-.44,0-.66a.47.47,0,0,1,.48-.48h.76c.11,0,.13,0,.09.13a1.23,1.23,0,0,0-.08.19c0,.2-.15.31-.37.26s-.16,0-.16.16c0,.37,0,.73,0,1.1,0,.11,0,.14-.14.14s-.43.06-.55,0,0-.36,0-.54,0-.18,0-.27Z"/></svg>