<svg xmlns="http://www.w3.org/2000/svg" viewBox="0 0 59.5 13.38"><path d="M26.07,13.27l1.3-6.19H29q.7,0,.89,0a2.57,2.57,0,0,1,.69.16,1.89,1.89,0,0,1,.55.33,2.08,2.08,0,0,1,.43.51,2.52,2.52,0,0,1,.28.69,3.54,3.54,0,0,1,.1.85,4,4,0,0,1-.38,1.77,3.51,3.51,0,0,1-1,1.23,2.89,2.89,0,0,1-1.14.52,5.83,5.83,0,0,1-1.22.09Zm1.48-1h.65a4.22,4.22,0,0,0,1-.09,1.41,1.41,0,0,0,.58-.32,2.73,2.73,0,0,0,.63-.91,3.24,3.24,0,0,0,.26-1.34,1.85,1.85,0,0,0-.21-1,1,1,0,0,0-.53-.44,2.72,2.72,0,0,0-.78-.08h-.74Z"/><path d="M32.46,11.41a2.77,2.77,0,0,1,.7-2A2.43,2.43,0,0,1,35,8.69a2.12,2.12,0,0,1,1.55.55,2,2,0,0,1,.56,1.47,2.76,2.76,0,0,1-.7,1.88,2.36,2.36,0,0,1-1.87.79,2.41,2.41,0,0,1-1.12-.25,1.65,1.65,0,0,1-.73-.72A2.13,2.13,0,0,1,32.46,11.41Zm3.45-.86a1,1,0,0,0-.25-.69A.86.86,0,0,0,35,9.6a1.08,1.08,0,0,0-.7.24,1.56,1.56,0,0,0-.47.7,2.49,2.49,0,0,0-.17.85,1.08,1.08,0,0,0,.26.76.86.86,0,0,0,.66.28,1,1,0,0,0,.84-.43A2.28,2.28,0,0,0,35.91,10.55Z"/><path d="M37.56,13.27l1.3-6.19h1.21l-1.29,6.19Z"/><path d="M40.14,11.41a2.77,2.77,0,0,1,.7-2,2.43,2.43,0,0,1,1.85-.74,2.12,2.12,0,0,1,1.55.55,2,2,0,0,1,.56,1.47,2.76,2.76,0,0,1-.7,1.88,2.36,2.36,0,0,1-1.86.79,2.41,2.41,0,0,1-1.12-.25,1.65,1.65,0,0,1-.73-.72A2.13,2.13,0,0,1,40.14,11.41Zm3.45-.86a1,1,0,0,0-.25-.69.86.86,0,0,0-.65-.26,1.08,1.08,0,0,0-.7.24,1.56,1.56,0,0,0-.47.7,2.49,2.49,0,0,0-.17.85,1.08,1.08,0,0,0,.26.76.86.86,0,0,0,.66.28,1,1,0,0,0,.84-.43A2.28,2.28,0,0,0,43.59,10.55Z"/><path d="M46.14,8.79h1.14l-.11.54a2,2,0,0,1,1.4-.65,1.26,1.26,0,0,1,.78.21,1,1,0,0,1,.35.58,1.8,1.8,0,0,1,.67-.57,1.92,1.92,0,0,1,.9-.23A1.16,1.16,0,0,1,52.1,9a1,1,0,0,1,.3.76,4.65,4.65,0,0,1-.12.8l-.57,2.74H50.5l.57-2.74q.11-.51.11-.58a.39.39,0,0,0-.11-.29.47.47,0,0,0-.34-.11,1,1,0,0,0-.81.48,3.23,3.23,0,0,0-.44,1.21l-.43,2H47.85l.57-2.71a4,4,0,0,0,.1-.61.38.38,0,0,0-.12-.29.46.46,0,0,0-.33-.11.84.84,0,0,0-.41.12,1.21,1.21,0,0,0-.37.32,1.92,1.92,0,0,0-.27.53q-.05.15-.16.69l-.43,2.06H45.2Z"/><path d="M53.86,8.79h1.21l-.94,4.48H52.93Zm.35-1.7h1.21l-.23,1.1H54Z"/><path d="M55.63,9.69l.19-.9h.59l.15-.72,1.39-.84-.32,1.55h.74l-.19.9h-.74L57,11.57a5.88,5.88,0,0,0-.11.58.27.27,0,0,0,.09.22.49.49,0,0,0,.32.08l.4,0-.19.9a3.22,3.22,0,0,1-.64.06,1.43,1.43,0,0,1-.93-.25.85.85,0,0,1-.29-.69,6.41,6.41,0,0,1,.16-1l.38-1.8Z"/><polygon points="25.45 5.99 58.8 5.99 59.5 2.98 26.46 2.98 25.45 5.99"/><path d="M2.27,5.7H1L0,0H1.17l.72,4.31L4.25,0H5.42Z"/><path d="M6,2.74,4.92,2.65a1.64,1.64,0,0,1,.65-.86A2.18,2.18,0,0,1,6.8,1.47,1.8,1.8,0,0,1,8,1.79a1,1,0,0,1,.38.78,2.55,2.55,0,0,1,0,.4q0,.21-.23,1.1a5.67,5.67,0,0,0-.16,1A2.13,2.13,0,0,0,8,5.7H6.94a2.14,2.14,0,0,1-.08-.47,1.71,1.71,0,0,1-.56.42,1.53,1.53,0,0,1-.64.15,1.14,1.14,0,0,1-.85-.34,1.17,1.17,0,0,1-.33-.87,1.25,1.25,0,0,1,.37-.94,2.14,2.14,0,0,1,1.31-.43,5.21,5.21,0,0,0,1.07-.16,1.38,1.38,0,0,0,.07-.37.38.38,0,0,0-.14-.3.65.65,0,0,0-.43-.12.8.8,0,0,0-.47.12A.61.61,0,0,0,6,2.74Zm1.06,1-.27.05a2.55,2.55,0,0,0-1.1.3.45.45,0,0,0-.18.38.44.44,0,0,0,.14.33A.51.51,0,0,0,6,5a1,1,0,0,0,.48-.12.84.84,0,0,0,.33-.31,2.15,2.15,0,0,0,.2-.6Z"/><path d="M9.66,1.57h1l-.17.8a1.6,1.6,0,0,1,1.26-.9,1.3,1.3,0,0,1,.52.12l-.43.91a1,1,0,0,0-.32-.05,1,1,0,0,0-.58.22,1.46,1.46,0,0,0-.46.58,5.78,5.78,0,0,0-.33,1.15L9.91,5.7H8.8Z"/><path d="M15.77,5.7H14.71l.09-.45a2.05,2.05,0,0,1-.6.42,1.66,1.66,0,0,1-.66.13,1.34,1.34,0,0,1-1-.44,1.86,1.86,0,0,1-.4-1.29,3.06,3.06,0,0,1,.56-1.79,1.73,1.73,0,0,1,1.48-.8,1.38,1.38,0,0,1,1.25.66L15.85,0H17ZM13.19,4a1,1,0,0,0,.22.69A.71.71,0,0,0,14,5a.89.89,0,0,0,.57-.21A1.41,1.41,0,0,0,15,4.12a2.37,2.37,0,0,0,.16-.82,1.06,1.06,0,0,0-.24-.72.72.72,0,0,0-.56-.28.92.92,0,0,0-.8.54A2.31,2.31,0,0,0,13.19,4Z"/><path d="M18.4,2.74l-1.09-.09A1.64,1.64,0,0,1,18,1.78a2.18,2.18,0,0,1,1.23-.31,1.8,1.8,0,0,1,1.18.32,1,1,0,0,1,.38.78,2.55,2.55,0,0,1,0,.4q0,.21-.23,1.1a5.67,5.67,0,0,0-.16,1,2.13,2.13,0,0,0,.09.59H19.33a2.14,2.14,0,0,1-.08-.47,1.71,1.71,0,0,1-.56.42A1.53,1.53,0,0,1,18,5.8a1.14,1.14,0,0,1-.85-.34,1.17,1.17,0,0,1-.33-.87,1.25,1.25,0,0,1,.37-.94,2.14,2.14,0,0,1,1.31-.43,5.21,5.21,0,0,0,1.07-.16,1.38,1.38,0,0,0,.07-.37.38.38,0,0,0-.14-.3.65.65,0,0,0-.43-.12.8.8,0,0,0-.47.12A.61.61,0,0,0,18.4,2.74Zm1.06,1-.27.05a2.55,2.55,0,0,0-1.1.3.45.45,0,0,0-.18.38.44.44,0,0,0,.14.33.51.51,0,0,0,.37.13,1,1,0,0,0,.48-.12.84.84,0,0,0,.33-.31,2.15,2.15,0,0,0,.2-.6Z"/><path d="M22,1.57h1l-.17.8a1.6,1.6,0,0,1,1.26-.9,1.3,1.3,0,0,1,.52.12l-.43.91A1,1,0,0,0,24,2.45a1,1,0,0,0-.58.22,1.46,1.46,0,0,0-.46.58,5.78,5.78,0,0,0-.33,1.15L22.3,5.7H21.19Z"/></svg>