<svg xmlns="http://www.w3.org/2000/svg" viewBox="0 0 110.83 140">
  <path
    d="M90.42,70H87.5V61.25a2.91,2.91,0,0,0-2.92-2.92H83l7.46-19.76c5.78-.92,10.12-6.13,11-13.61C102.59,15.4,97.8,3.65,84.58.46a2.91,2.91,0,0,0-3.12,4.43c3.08,4.7,1.22,7.48-2.06,11.63a21.41,21.41,0,0,0-3.16,4.78A12.33,12.33,0,0,0,76,30.9a11.65,11.65,0,0,0,2.55,3.72L65.38,58.33h-1.2V2.92A2.91,2.91,0,0,0,61.26,0H37.92A2.91,2.91,0,0,0,35,2.92V58.33H33.8L20.05,33.58s-.08-.07-.11-.12a2.2,2.2,0,0,0-.1-.21,2.9,2.9,0,0,0-.77-.69s0,0-.06-.06l0,0h0L4.42,23.75a2.92,2.92,0,0,0-4.38,3L3,44.23s0,.08,0,.12a2.76,2.76,0,0,0,.09.28,3.15,3.15,0,0,0,.14.42L9.86,58.33H8.75a2.91,2.91,0,0,0-2.92,2.92v64.17A14.6,14.6,0,0,0,20.42,140h52.5A14.6,14.6,0,0,0,87.5,125.42V110.83h2.91a20.42,20.42,0,0,0,0-40.83ZM81.6,23.57A17.42,17.42,0,0,1,84,20.14c2.22-2.8,5.24-6.6,4.9-11.56a16.57,16.57,0,0,1,6.8,15.69c-.48,4-2.61,8.66-7,8.66a8.78,8.78,0,0,1-3.4-.77,6.73,6.73,0,0,1-3.8-3.51A6.44,6.44,0,0,1,81.6,23.57Zm1.91,14.16c.3.11.6.19.9.28L76.74,58.33H72ZM40.83,5.83h17.5v5.83H49.58a2.92,2.92,0,1,0,0,5.83h8.75v5.83H55.42a2.92,2.92,0,0,0,0,5.83h2.92V35H49.58a2.92,2.92,0,1,0,0,5.83h8.75v5.83H55.42a2.92,2.92,0,0,0,0,5.83h2.92v5.83H40.83ZM12.28,35.27,7.92,38.54,6.83,32ZM9.53,44.62l7-5.28,10.55,19H16.39Zm72.14,80.79a8.76,8.76,0,0,1-8.75,8.75H20.42a8.76,8.76,0,0,1-8.75-8.75V64.17h70v61.25ZM90.42,105H87.5V75.83h2.92a14.58,14.58,0,1,1,0,29.17Z"
  ></path>
</svg>