<svg xmlns="http://www.w3.org/2000/svg" viewBox="0 0 155.44 140">
<path d="M145.15,12.35h-8.06V5.15A5.15,5.15,0,0,0,131.94,0H23.5a5.15,5.15,0,0,0-5.15,5.15V31.91a5.15,5.15,0,0,0,5.15,5.15H131.94a5.15,5.15,0,0,0,5.15-5.15V22.65h8.06v94.71h-8.06v-9.27a5.15,5.15,0,0,0-5.15-5.15H23.5a5.15,5.15,0,0,0-5.15,5.15v9.27H10.29V75.15h8.06v8.23a5.15,5.15,0,0,0,5.15,5.15H131.94a5.15,5.15,0,0,0,5.15-5.15V56.62a5.15,5.15,0,0,0-5.15-5.15H23.5a5.15,5.15,0,0,0-5.15,5.15v8.23H10.29A10.31,10.31,0,0,0,0,75.15v42.21a10.3,10.3,0,0,0,10.29,10.29h8.06v7.21A5.15,5.15,0,0,0,23.51,140H131.94a5.15,5.15,0,0,0,5.15-5.15v-7.21h8.06a10.31,10.31,0,0,0,10.29-10.29V22.65A10.31,10.31,0,0,0,145.15,12.35ZM42.38,26.59a8.06,8.06,0,1,1,8.06-8.06A8.06,8.06,0,0,1,42.38,26.59Zm43.06-2.92a3.86,3.86,0,0,1-7.72,0V13.38a3.86,3.86,0,1,1,7.72,0Zm17.16,0a3.86,3.86,0,0,1-7.72,0V13.38a3.86,3.86,0,1,1,7.72,0Zm17.16,0a3.86,3.86,0,0,1-7.72,0V13.38a3.86,3.86,0,1,1,7.72,0ZM112,64.85a3.86,3.86,0,1,1,7.72,0V75.15a3.86,3.86,0,1,1-7.72,0Zm-17.16,0a3.86,3.86,0,1,1,7.72,0V75.15a3.86,3.86,0,1,1-7.72,0Zm-17.16,0a3.86,3.86,0,1,1,7.72,0V75.15a3.86,3.86,0,1,1-7.72,0ZM42.38,61.94A8.06,8.06,0,1,1,34.31,70,8.06,8.06,0,0,1,42.38,61.94Zm0,67.6a8.06,8.06,0,1,1,8.06-8.06A8.06,8.06,0,0,1,42.38,129.53Zm43.06-2.92a3.86,3.86,0,1,1-7.72,0V116.32a3.86,3.86,0,0,1,7.72,0Zm17.16,0a3.86,3.86,0,1,1-7.72,0V116.32a3.86,3.86,0,0,1,7.72,0Zm17.16,0a3.86,3.86,0,1,1-7.72,0V116.32a3.86,3.86,0,0,1,7.72,0Z"></path>
</svg>