<svg xmlns="http://www.w3.org/2000/svg" viewBox="0 0 140 140">
  <path
    d="M135.9,65.9h-7A59,59,0,0,0,74.1,11.13v-7a4.1,4.1,0,0,0-8.2,0v7A59,59,0,0,0,11.13,65.9h-7a4.1,4.1,0,0,0,0,8.2h7A59,59,0,0,0,65.9,128.87v7a4.1,4.1,0,0,0,8.2,0v-7A59,59,0,0,0,128.87,74.1h7a4.1,4.1,0,0,0,0-8.2Zm-15.25,0H106.82A37.12,37.12,0,0,0,74.1,33.18V19.35A50.9,50.9,0,0,1,120.65,65.9Zm-54.75,0H41.45A28.91,28.91,0,0,1,65.9,41.45Zm0,8.2V98.55A28.91,28.91,0,0,1,41.45,74.1Zm8.2,0H98.55A28.91,28.91,0,0,1,74.1,98.55Zm0-8.2V41.45A28.91,28.91,0,0,1,98.55,65.9ZM65.9,19.35V33.18A37.12,37.12,0,0,0,33.18,65.9H19.35A50.9,50.9,0,0,1,65.9,19.35ZM19.35,74.1H33.18A37.12,37.12,0,0,0,65.9,106.82v13.83A50.9,50.9,0,0,1,19.35,74.1ZM74.1,120.65V106.82A37.12,37.12,0,0,0,106.82,74.1h13.83A50.9,50.9,0,0,1,74.1,120.65Z"
  ></path>
</svg>