<svg xmlns="http://www.w3.org/2000/svg" viewBox="0 0 195.41 76.43"  height="140px">
  <g>
    <g>
      <path d="M0,3.89a3.88,3.88,0,0,0,1.47,3h0L22.84,28.3a3.89,3.89,0,0,0,6.13,0h0L44,13.23v34.7a3.89,3.89,0,0,0,7.77,0v-44a3.89,3.89,0,0,0-6.95-2.4L25.93,20.43,7,1.48l0,0A3.89,3.89,0,0,0,0,3.89Z" fill="#fff"/>
      <path d="M51.82,72.54a3.88,3.88,0,0,0-1.47-3h0L29,48.13a3.89,3.89,0,0,0-6.13,0h0L7.77,63.2V28.5A3.89,3.89,0,0,0,0,28.5v44a3.89,3.89,0,0,0,6.95,2.4L25.88,56,44.83,74.94l0,0a3.89,3.89,0,0,0,7-2.38Z" fill="#fff"/>
    </g>
    <g>
      <g>
        <path d="M70.13,9.56h2.94V32.89H87.73v2.72H70.13Z" fill="#fff"/>
        <path d="M113,24.48a14.73,14.73,0,0,1-.78,5A9.8,9.8,0,0,1,110,33.12a9.13,9.13,0,0,1-3.42,2.18,13.87,13.87,0,0,1-8.86,0,9.24,9.24,0,0,1-3.42-2.16A9.68,9.68,0,0,1,92,29.58a14.06,14.06,0,0,1-.78-4.88V9.56H94.2v15q0,4.24,2.1,6.51a7.59,7.59,0,0,0,5.86,2.27,7.67,7.67,0,0,0,5.73-2.16Q110,29,110,24.71V9.56H113Z" fill="#fff"/>
        <path d="M138.18,33.36a13,13,0,0,1-2.36,1.43,13.4,13.4,0,0,1-2.72.93,14.38,14.38,0,0,1-3.24.34,12.81,12.81,0,0,1-9.34-3.89,13,13,0,0,1-2.73-4.26,14.56,14.56,0,0,1,0-10.53,13.47,13.47,0,0,1,2.73-4.3,12.74,12.74,0,0,1,4.17-2.9A13,13,0,0,1,130,9.12a15.89,15.89,0,0,1,3.22.3,13.32,13.32,0,0,1,2.66.84,12,12,0,0,1,2.27,1.3,19.84,19.84,0,0,1,2,1.69l-2,2.16a16.44,16.44,0,0,0-3.59-2.57,10,10,0,0,0-11.8,2.08,10.51,10.51,0,0,0-2.12,3.4,11.5,11.5,0,0,0-.76,4.22,11.64,11.64,0,0,0,.76,4.24,10.46,10.46,0,0,0,2.12,3.42,10,10,0,0,0,3.2,2.29,9.55,9.55,0,0,0,4,.84,10.06,10.06,0,0,0,4.61-1,16.1,16.1,0,0,0,3.8-2.77l1.94,1.9A18.46,18.46,0,0,1,138.18,33.36Z" fill="#fff"/>
        <path d="M166.48,35.61H162.8L152.79,23l-5.54,5.62v7H144.3v-26h2.94V25.12l15-15.55H166L154.83,20.95Z" fill="#fff"/>
        <path d="M183.53,35.61h-2.94V25.3L169.76,9.56h3.57l8.76,13,8.84-13h3.42l-10.83,15.7Z" fill="#fff"/>
      </g>
      <g>
        <path d="M90.7,67.31V50.16L83.3,61.38h-.15L75.83,50.27v17H70.13V41h6.23l6.91,11.11L90.17,41H96.4V67.31Z" fill="#fff"/>
        <path d="M102.71,67.31V41h19.78v5.14H108.41v5.33H120.8v5.14H108.41v5.52h14.26v5.14Z" fill="#fff"/>
        <path d="M151.05,59.35a12.24,12.24,0,0,1-2.87,4.17,13.59,13.59,0,0,1-4.43,2.78,15.27,15.27,0,0,1-5.65,1H127.85V41H138.1a15.54,15.54,0,0,1,5.65,1,13.36,13.36,0,0,1,4.43,2.76,12.29,12.29,0,0,1,2.87,4.15,13,13,0,0,1,1,5.16v.08A13.18,13.18,0,0,1,151.05,59.35Zm-5-5.18a8.58,8.58,0,0,0-.58-3.19,7.51,7.51,0,0,0-1.61-2.51,7.18,7.18,0,0,0-2.5-1.63,8.68,8.68,0,0,0-3.23-.58h-4.47V62.09h4.47a8.92,8.92,0,0,0,3.23-.56,6.93,6.93,0,0,0,2.5-1.61,7.58,7.58,0,0,0,1.61-2.48,8.38,8.38,0,0,0,.58-3.19Z" fill="#fff"/>
        <path d="M157,67.31V41h5.78V67.31Z" fill="#fff"/>
        <path d="M189.37,67.31,187,61.42H175.86l-2.4,5.89h-5.89l11.26-26.46h5.33l11.26,26.46Zm-8-19.52-3.49,8.52h7Z" fill="#fff"/>
      </g>
    </g>
  </g>
</svg>
